<svg width="213" height="47" viewBox="0 0 213 47" fill="none" xmlns="http://www.w3.org/2000/svg">
<g id="_&#229;&#155;&#190;&#229;&#177;&#130;_1" clip-path="url(#clip0_169_77)">
<path id="Vector" d="M7.66033 24.9542H14.9461C16.7832 24.9542 17.6928 25.6034 17.6928 26.8929C17.6928 27.7822 17.3717 28.4669 16.7207 28.9561C16.0697 29.4452 15.1691 29.6942 14.0008 29.6942H2.94285C2.04216 29.6942 1.32874 29.4719 0.793678 29.0183C0.258614 28.5737 0 27.96 0 27.1952C0 26.4304 0.436969 25.6745 1.32874 24.5451L15.392 4.76684L7.61574 4.85577H7.07176C5.4844 4.85577 4.69073 4.20657 4.69073 2.89929C4.69073 2.09002 5.00285 1.40525 5.62709 0.844984C6.25133 0.284719 7.01825 0.0090332 7.91894 0.0090332H19.7082C21.7325 0.0090332 22.7402 0.86277 22.7402 2.57914C22.7402 3.46845 22.2854 4.35776 21.3669 5.25596L7.65141 24.9719L7.66033 24.9542Z" fill="white"/>
<path id="Vector_2" d="M23.0611 23.3265C23.0611 24.4115 23.8815 24.954 25.5224 24.954H32.0056C33.8426 24.954 34.7523 25.6032 34.7523 26.8927C34.7523 27.782 34.4312 28.4667 33.7802 28.9559C33.1292 29.445 32.2285 29.694 31.0603 29.694H24.8892C22.5885 29.694 20.8406 29.1248 19.6456 27.9954C18.4506 26.866 17.8442 25.2119 17.8442 23.0331C17.8442 20.2317 18.7895 17.8217 20.689 15.7852C22.5885 13.7576 24.8447 12.7349 27.4665 12.7349C29.3749 12.7349 30.8998 13.2329 32.0591 14.2289C33.2184 15.2249 33.7981 16.5322 33.7981 18.1597C33.7981 20.1161 32.9955 21.5657 31.3992 22.5084C30.5074 23.042 29.1876 23.3176 27.4308 23.3176H23.07L23.0611 23.3265ZM24.1045 19.3691H26.5034C28.064 19.3691 28.813 19.0312 28.7685 18.3464C28.7239 17.5816 28.2245 17.1903 27.2614 17.1903C25.9237 17.1903 24.8714 17.9195 24.0956 19.3691H24.1045Z" fill="white"/>
<path id="Vector_3" d="M50.2869 24.9541H52.6858C54.5228 24.9541 55.4324 25.5944 55.4324 26.8661C55.4324 27.7554 55.1025 28.4402 54.4515 28.9471C53.8005 29.4451 52.8909 29.6941 51.7494 29.6941H48.9581C47.7097 29.6941 46.8536 29.205 46.4077 28.2357C45.3197 29.205 44.2585 29.6941 43.2419 29.6941H40.7538C39.1576 29.6941 37.8645 29.125 36.8835 27.9867C35.9026 26.8483 35.4121 25.3543 35.4121 23.5134C35.4121 20.7299 36.3752 18.2398 38.3015 16.0432C40.2277 13.8466 42.4036 12.7439 44.8382 12.7439C46.702 12.7439 48.0575 13.3931 48.9225 14.6826C49.6537 13.5976 50.599 13.0552 51.7851 13.0552C52.4271 13.0552 52.9622 13.2597 53.3903 13.6688C53.8183 14.0779 54.0323 14.5759 54.0323 15.1717C54.0323 15.5808 53.9164 16.061 53.6845 16.6302L53.4438 17.2171L50.3047 24.963L50.2869 24.9541ZM42.3679 25.0608H42.9119C44.1069 25.0608 44.9006 24.5717 45.293 23.6024L46.8179 19.8406C47.023 19.3515 47.1211 18.9335 47.1211 18.6044C47.1211 18.2131 46.9249 17.8752 46.5414 17.5817C46.158 17.2883 45.6943 17.146 45.1592 17.146C44.098 17.146 43.0635 17.7596 42.0647 18.9957C41.0659 20.2319 40.5576 21.5036 40.5576 22.8287C40.5576 24.3227 41.164 25.0697 42.3679 25.0697V25.0608Z" fill="white"/>
<path id="Vector_4" d="M62.0407 24.9541H70.575C72.421 24.9541 73.3484 25.6033 73.3484 26.8928C73.3484 27.7821 73.0274 28.4669 72.3764 28.956C71.7254 29.4451 70.8247 29.6941 69.6565 29.6941H59.4903C58.4112 29.6941 57.564 29.4362 56.9398 28.9293C56.3155 28.4224 56.0034 27.7377 56.0034 26.8839C56.0034 26.4393 56.2174 25.6834 56.6366 24.6429L65.4473 3.01486L65.6881 2.42792C66.3569 0.800482 67.427 -0.00878906 68.8985 -0.00878906C69.5049 -0.00878906 70.031 0.195752 70.4591 0.595941C70.8871 1.00502 71.1011 1.48525 71.1011 2.05441C71.1011 2.49017 70.9941 2.97929 70.7712 3.53066L70.5304 4.11761L62.0407 24.9363V24.9541Z" fill="white"/>
<path id="Vector_5" d="M101.136 5.20246H93.0388C91.4247 5.20246 90.6132 4.5088 90.6132 3.11258C90.6132 2.22327 90.9432 1.48515 91.6031 0.889309C92.263 0.293472 93.0745 0 94.0376 0H106.371C110.651 0 113.924 1.01381 116.216 3.04144C118.499 5.06906 119.64 7.99489 119.64 11.81C119.64 17.6261 117.696 22.962 113.817 27.7998C111.623 30.53 109.135 32.5131 106.362 33.7582C103.589 35.0032 100.271 35.6257 96.4008 35.6257H94.8759L94.6173 36.2305C93.6007 38.4893 92.7981 40.0812 92.2184 40.9972C91.6388 41.9131 90.8808 42.7936 89.9533 43.6473C87.5277 45.8706 84.7364 46.9733 81.5974 46.9733C79.0112 46.9733 76.8799 46.2085 75.2123 44.6789C73.5447 43.1493 72.7153 41.2017 72.7153 38.8361C72.7153 37.3866 73.072 36.0259 73.7855 34.7542C74.4989 33.4825 75.462 32.4954 76.6837 31.7839C78.2711 30.8679 80.4113 30.4144 83.1223 30.4144H90.8718L101.145 5.17578L101.136 5.20246ZM88.7405 35.6435H82.9618C80.1081 35.6435 78.6813 36.6484 78.6813 38.6672C78.6813 39.4942 78.9934 40.1879 79.6177 40.757C80.2419 41.3262 81.0088 41.6019 81.9095 41.6019C83.2472 41.6019 84.5224 41.0772 85.7263 40.0278C86.9302 38.9784 87.9379 37.5111 88.7405 35.6435ZM96.9894 30.4411H97.8633C102.376 30.4411 106.148 28.449 109.189 24.456C110.66 22.544 111.82 20.463 112.667 18.2308C113.523 15.9987 113.942 13.9266 113.942 12.0324C113.942 9.9158 113.345 8.2439 112.15 7.02554C110.955 5.80719 109.332 5.20246 107.28 5.20246L96.9805 30.4411H96.9894Z" fill="white"/>
<path id="Vector_6" d="M125.133 23.3265C125.133 24.4115 125.954 24.954 127.595 24.954H134.078C135.915 24.954 136.825 25.6032 136.825 26.8927C136.825 27.782 136.503 28.4667 135.852 28.9559C135.201 29.445 134.301 29.694 133.133 29.694H126.962C124.661 29.694 122.913 29.1248 121.718 27.9954C120.523 26.866 119.917 25.2119 119.917 23.0331C119.917 20.2317 120.862 17.8217 122.761 15.7852C124.661 13.7576 126.917 12.7349 129.539 12.7349C131.447 12.7349 132.972 13.2329 134.131 14.2289C135.291 15.2249 135.87 16.5322 135.87 18.1597C135.87 20.1161 135.068 21.5657 133.471 22.5084C132.58 23.042 131.26 23.3176 129.503 23.3176H125.142L125.133 23.3265ZM126.177 19.3691H128.576C130.136 19.3691 130.885 19.0312 130.841 18.3464C130.796 17.5816 130.297 17.1903 129.334 17.1903C127.996 17.1903 126.944 17.9195 126.168 19.3691H126.177Z" fill="white"/>
<path id="Vector_7" d="M144.984 18.9956L144.574 19.9916C143.932 21.4323 143.023 22.1438 141.845 22.1438C141.248 22.1438 140.713 21.9392 140.24 21.5212C139.768 21.1122 139.536 20.6319 139.536 20.0983C139.536 19.5914 139.75 18.9156 140.169 18.0707L143.067 12.1924C143.781 10.7873 144.663 10.0847 145.725 10.0847C146.295 10.0847 146.777 10.2715 147.187 10.6361C147.597 11.0096 147.802 11.4454 147.802 11.9523C147.802 12.0857 147.758 12.3613 147.669 12.7971C147.606 13.1173 147.58 13.4018 147.58 13.6508C147.58 14.5668 147.918 15.5006 148.605 16.4611L149.845 18.1774C151.111 19.9294 151.744 21.628 151.744 23.2643C151.744 25.0963 151.057 26.617 149.693 27.8442C148.329 29.0715 146.625 29.6851 144.592 29.6851H140.035C138.189 29.6851 137.262 29.0448 137.262 27.7731C137.262 26.8927 137.592 26.199 138.243 25.6921C138.894 25.1941 139.803 24.9451 140.945 24.9451H143.477C145.502 24.9451 146.509 24.2158 146.509 22.7485C146.509 22.2149 146.322 21.5835 145.939 20.8543L144.976 18.9867L144.984 18.9956Z" fill="white"/>
<path id="Vector_8" d="M158.619 24.9541H161.081C162.918 24.9541 163.827 25.6033 163.827 26.8928C163.827 27.7821 163.506 28.4669 162.855 28.956C162.204 29.4451 161.304 29.6941 160.136 29.6941H156.666C155.382 29.6941 154.384 29.4362 153.643 28.9115C152.912 28.3868 152.538 27.6754 152.538 26.7772C152.538 26.2969 152.689 25.6922 152.992 24.9452L156.595 16.1144L156.836 15.5007C157.505 13.8644 158.584 13.0462 160.064 13.0462C160.671 13.0462 161.206 13.2508 161.643 13.6599C162.088 14.0689 162.311 14.5492 162.311 15.1183C162.311 15.5808 162.115 16.2922 161.723 17.2527L158.602 24.9541H158.619ZM161.5 6.10962C162.347 6.10962 163.061 6.40309 163.649 6.99004C164.238 7.57698 164.532 8.28843 164.532 9.13327C164.532 9.97812 164.238 10.6896 163.649 11.2765C163.061 11.8635 162.347 12.1569 161.5 12.1569C160.653 12.1569 159.939 11.8635 159.351 11.2765C158.762 10.6896 158.468 9.97812 158.468 9.13327C158.468 8.28843 158.762 7.57698 159.351 6.99004C159.939 6.40309 160.653 6.10962 161.5 6.10962Z" fill="white"/>
<path id="Vector_9" d="M177.062 30.3077H179.684C181.53 30.3077 182.457 30.948 182.457 32.2197C182.457 33.109 182.127 33.7937 181.476 34.3007C180.825 34.7987 179.915 35.0477 178.774 35.0477H175.153L174.235 37.2887C172.005 42.7313 168.759 45.4437 164.479 45.4437C162.24 45.4437 160.377 44.75 158.878 43.3805C157.389 42.0021 156.64 40.2768 156.64 38.2047C156.64 36.853 156.997 35.5901 157.719 34.4074C158.442 33.2246 159.422 32.2819 160.68 31.5883C162.223 30.7345 164.292 30.3077 166.896 30.3077H171.586L172.264 28.6091C171.345 29.1604 170.48 29.4361 169.669 29.4361C168.108 29.4361 166.851 28.9025 165.879 27.8265C164.916 26.7504 164.425 25.3542 164.425 23.6289C164.425 20.8454 165.406 18.3375 167.368 16.1054C169.33 13.8732 171.533 12.7527 173.976 12.7527C175.769 12.7527 177.106 13.3307 177.989 14.4957C178.676 13.3307 179.639 12.7527 180.887 12.7527C181.503 12.7527 182.02 12.9483 182.448 13.3485C182.876 13.7487 183.09 14.2289 183.09 14.7981C183.09 15.2516 182.903 15.9364 182.519 16.8613L177.044 30.3077H177.062ZM169.642 35.0477H165.87C164.559 35.0477 163.542 35.3234 162.829 35.8747C162.107 36.4261 161.75 37.1998 161.75 38.2047C161.75 38.8895 162 39.4675 162.49 39.9478C162.981 40.428 163.596 40.6681 164.327 40.6681C165.371 40.6681 166.289 40.259 167.074 39.432C167.859 38.6049 168.715 37.1464 169.651 35.0566L169.642 35.0477ZM174.226 23.7801L175.992 19.4759C176.134 19.1112 176.215 18.8178 176.215 18.5866C176.215 18.1508 176.018 17.7862 175.635 17.5016C175.251 17.2081 174.77 17.0658 174.181 17.0658C173.138 17.0658 172.13 17.6617 171.185 18.8622C170.24 20.0628 169.758 21.3256 169.758 22.6596C169.758 24.1803 170.472 24.9451 171.898 24.9451C173.138 24.9451 173.914 24.5627 174.235 23.789L174.226 23.7801Z" fill="white"/>
<path id="Vector_10" d="M198.687 24.9541H210.226C212.072 24.9541 213 25.6033 213 26.8928C213 27.7821 212.67 28.4669 212.019 28.956C211.368 29.4451 210.458 29.6941 209.317 29.6941H195.842C194.95 29.6941 194.21 29.4273 193.604 28.8848C192.997 28.3423 192.694 27.6754 192.694 26.8572C192.694 26.3681 192.899 25.6211 193.309 24.6339L195.227 19.8939C195.432 19.4048 195.539 19.0046 195.557 18.6933C195.575 18.3465 195.432 18.0441 195.129 17.804C194.834 17.555 194.451 17.4305 193.978 17.4305C192.48 17.4305 191.276 18.551 190.358 20.801L187.78 27.1151C187.014 29.0271 185.863 29.9876 184.329 29.9876C183.705 29.9876 183.17 29.8008 182.733 29.4184C182.296 29.036 182.082 28.5736 182.082 28.0222C182.082 27.6131 182.198 27.1329 182.43 26.5637L182.671 25.9768L187.076 15.145C187.647 13.7399 188.61 13.0373 189.974 13.0373C191.098 13.0373 191.892 13.5265 192.373 14.5136C193.934 13.3219 195.414 12.7261 196.823 12.7261C198.232 12.7261 199.32 13.1174 200.203 13.9C201.086 14.6826 201.532 15.6786 201.532 16.8791C201.532 17.5461 201.371 18.2843 201.05 19.0757L198.669 24.9274L198.687 24.9541Z" fill="white"/>
</g>
<defs>
<clipPath id="clip0_169_77">
<rect width="213" height="47" fill="white"/>
</clipPath>
</defs>
</svg>
