<svg width="1412" height="167" viewBox="0 0 1412 167" fill="none" xmlns="http://www.w3.org/2000/svg">
<mask id="path-1-outside-1_452_6658" maskUnits="userSpaceOnUse" x="1329.05" y="46.8906" width="83" height="66" fill="black">
<rect fill="white" x="1329.05" y="46.8906" width="83" height="66"/>
<path d="M1390.94 92.7815H1400.55C1407.32 92.7815 1410.71 95.1554 1410.71 99.9032C1410.71 103.157 1409.51 105.691 1407.11 107.505C1404.71 109.319 1401.4 110.226 1397.19 110.226H1380.46C1377.21 110.226 1374.46 109.239 1372.22 107.265C1370.03 105.291 1368.94 102.811 1368.94 99.8232C1368.94 98.0094 1369.69 95.2888 1371.18 91.6612L1378.22 74.217C1378.97 72.4032 1379.37 70.9362 1379.42 69.8159C1379.47 68.5356 1378.94 67.442 1377.82 66.5351C1376.75 65.6283 1375.37 65.1748 1373.66 65.1748C1368.16 65.1748 1363.74 69.3091 1360.38 77.5778L1350.93 100.783C1348.11 107.825 1343.89 111.346 1338.29 111.346C1336 111.346 1334.05 110.653 1332.45 109.266C1330.85 107.878 1330.05 106.171 1330.05 104.144C1330.05 102.651 1330.48 100.863 1331.33 98.783L1332.21 96.6224L1348.37 56.7728C1350.45 51.5982 1354 49.0109 1359.02 49.0109C1363.12 49.0109 1366.06 50.8247 1367.82 54.4522C1373.53 50.0778 1378.97 47.8906 1384.14 47.8906C1389.16 47.8906 1393.29 49.331 1396.54 52.2117C1399.8 55.0924 1401.43 58.7466 1401.43 63.1743C1401.43 65.6283 1400.84 68.3222 1399.67 71.2563L1390.94 92.7815Z"/>
</mask>
<path d="M1390.94 92.7815H1400.55C1407.32 92.7815 1410.71 95.1554 1410.71 99.9032C1410.71 103.157 1409.51 105.691 1407.11 107.505C1404.71 109.319 1401.4 110.226 1397.19 110.226H1380.46C1377.21 110.226 1374.46 109.239 1372.22 107.265C1370.03 105.291 1368.94 102.811 1368.94 99.8232C1368.94 98.0094 1369.69 95.2888 1371.18 91.6612L1378.22 74.217C1378.97 72.4032 1379.37 70.9362 1379.42 69.8159C1379.47 68.5356 1378.94 67.442 1377.82 66.5351C1376.75 65.6283 1375.37 65.1748 1373.66 65.1748C1368.16 65.1748 1363.74 69.3091 1360.38 77.5778L1350.93 100.783C1348.11 107.825 1343.89 111.346 1338.29 111.346C1336 111.346 1334.05 110.653 1332.45 109.266C1330.85 107.878 1330.05 106.171 1330.05 104.144C1330.05 102.651 1330.48 100.863 1331.33 98.783L1332.21 96.6224L1348.37 56.7728C1350.45 51.5982 1354 49.0109 1359.02 49.0109C1363.12 49.0109 1366.06 50.8247 1367.82 54.4522C1373.53 50.0778 1378.97 47.8906 1384.14 47.8906C1389.16 47.8906 1393.29 49.331 1396.54 52.2117C1399.8 55.0924 1401.43 58.7466 1401.43 63.1743C1401.43 65.6283 1400.84 68.3222 1399.67 71.2563L1390.94 92.7815Z" stroke="#2E0818" stroke-width="2" mask="url(#path-1-outside-1_452_6658)"/>
<mask id="path-2-outside-2_452_6658" maskUnits="userSpaceOnUse" x="1251.48" y="46.8906" width="66" height="65" fill="black">
<rect fill="white" x="1251.48" y="46.8906" width="66" height="65"/>
<path d="M1289.37 47.8906C1297.1 47.8906 1303.45 50.3446 1308.41 55.2524C1313.43 60.1603 1315.94 66.4018 1315.94 73.9769C1315.94 79.685 1314.63 85.3664 1312.01 91.0211C1309.4 96.6224 1306.01 101.104 1301.85 104.464C1299.08 106.652 1296.2 108.172 1293.21 109.025C1290.28 109.826 1286.14 110.226 1280.81 110.226C1272.11 110.226 1266.24 109.185 1263.2 107.105C1256.05 102.197 1252.48 94.942 1252.48 85.3397C1252.48 75.2039 1256.13 66.4285 1263.44 59.0133C1270.75 51.5982 1279.39 47.8906 1289.37 47.8906ZM1287.45 64.9348C1283.5 64.9348 1279.9 66.8819 1276.65 70.7762C1273.39 74.6704 1271.77 78.9648 1271.77 83.6593C1271.77 89.8475 1275.23 92.9415 1282.17 92.9415C1286.22 92.9415 1289.34 91.6879 1291.53 89.1806C1295.16 85.073 1296.97 80.3785 1296.97 75.0972C1296.97 72.0565 1296.09 69.6026 1294.33 67.7354C1292.57 65.8683 1290.28 64.9348 1287.45 64.9348Z"/>
</mask>
<path d="M1289.37 47.8906C1297.1 47.8906 1303.45 50.3446 1308.41 55.2524C1313.43 60.1603 1315.94 66.4018 1315.94 73.9769C1315.94 79.685 1314.63 85.3664 1312.01 91.0211C1309.4 96.6224 1306.01 101.104 1301.85 104.464C1299.08 106.652 1296.2 108.172 1293.21 109.025C1290.28 109.826 1286.14 110.226 1280.81 110.226C1272.11 110.226 1266.24 109.185 1263.2 107.105C1256.05 102.197 1252.48 94.942 1252.48 85.3397C1252.48 75.2039 1256.13 66.4285 1263.44 59.0133C1270.75 51.5982 1279.39 47.8906 1289.37 47.8906ZM1287.45 64.9348C1283.5 64.9348 1279.9 66.8819 1276.65 70.7762C1273.39 74.6704 1271.77 78.9648 1271.77 83.6593C1271.77 89.8475 1275.23 92.9415 1282.17 92.9415C1286.22 92.9415 1289.34 91.6879 1291.53 89.1806C1295.16 85.073 1296.97 80.3785 1296.97 75.0972C1296.97 72.0565 1296.09 69.6026 1294.33 67.7354C1292.57 65.8683 1290.28 64.9348 1287.45 64.9348Z" stroke="#2E0818" stroke-width="2" mask="url(#path-2-outside-2_452_6658)"/>
<mask id="path-3-outside-3_452_6658" maskUnits="userSpaceOnUse" x="1195.36" y="22.4854" width="46" height="89" fill="black">
<rect fill="white" x="1195.36" y="22.4854" width="46" height="89"/>
<path d="M1218.6 92.7821H1227.65C1234.37 92.7821 1237.73 95.1561 1237.73 99.9039C1237.73 103.158 1236.53 105.692 1234.13 107.506C1231.78 109.319 1228.47 110.226 1224.21 110.226H1211.48C1206.79 110.226 1203.08 109.266 1200.36 107.346C1197.69 105.425 1196.36 102.811 1196.36 99.5038C1196.36 97.7433 1196.92 95.5028 1198.04 92.7821L1211.24 60.2943L1212.12 58.0537C1214.58 52.0256 1218.52 49.0115 1223.97 49.0115C1226.21 49.0115 1228.13 49.7584 1229.73 51.2521C1231.38 52.7458 1232.21 54.5329 1232.21 56.6134C1232.21 58.3205 1231.49 60.9344 1230.05 64.4553L1218.6 92.7821ZM1229.17 23.4854C1232.26 23.4854 1234.88 24.5789 1237.01 26.7661C1239.2 28.9 1240.29 31.514 1240.29 34.608C1240.29 37.7021 1239.2 40.3428 1237.01 42.53C1234.88 44.6638 1232.26 45.7307 1229.17 45.7307C1226.07 45.7307 1223.43 44.6638 1221.25 42.53C1219.11 40.3428 1218.04 37.7021 1218.04 34.608C1218.04 31.514 1219.11 28.9 1221.25 26.7661C1223.43 24.5789 1226.07 23.4854 1229.17 23.4854Z"/>
</mask>
<path d="M1218.6 92.7821H1227.65C1234.37 92.7821 1237.73 95.1561 1237.73 99.9039C1237.73 103.158 1236.53 105.692 1234.13 107.506C1231.78 109.319 1228.47 110.226 1224.21 110.226H1211.48C1206.79 110.226 1203.08 109.266 1200.36 107.346C1197.69 105.425 1196.36 102.811 1196.36 99.5038C1196.36 97.7433 1196.92 95.5028 1198.04 92.7821L1211.24 60.2943L1212.12 58.0537C1214.58 52.0256 1218.52 49.0115 1223.97 49.0115C1226.21 49.0115 1228.13 49.7584 1229.73 51.2521C1231.38 52.7458 1232.21 54.5329 1232.21 56.6134C1232.21 58.3205 1231.49 60.9344 1230.05 64.4553L1218.6 92.7821ZM1229.17 23.4854C1232.26 23.4854 1234.88 24.5789 1237.01 26.7661C1239.2 28.9 1240.29 31.514 1240.29 34.608C1240.29 37.7021 1239.2 40.3428 1237.01 42.53C1234.88 44.6638 1232.26 45.7307 1229.17 45.7307C1226.07 45.7307 1223.43 44.6638 1221.25 42.53C1219.11 40.3428 1218.04 37.7021 1218.04 34.608C1218.04 31.514 1219.11 28.9 1221.25 26.7661C1223.43 24.5789 1226.07 23.4854 1229.17 23.4854Z" stroke="#2E0818" stroke-width="2" mask="url(#path-3-outside-3_452_6658)"/>
<mask id="path-4-outside-4_452_6658" maskUnits="userSpaceOnUse" x="1135.24" y="26.4863" width="55" height="85" fill="black">
<rect fill="white" x="1135.24" y="26.4863" width="55" height="85"/>
<path d="M1175.61 49.0115H1178.09C1184.86 49.0115 1188.25 51.3855 1188.25 56.1333C1188.25 59.3874 1187.05 61.9213 1184.65 63.7351C1182.25 65.5489 1178.94 66.4558 1174.73 66.4558H1168.88L1158.16 92.7822H1167.12C1173.9 92.7822 1177.29 95.1561 1177.29 99.9039C1177.29 103.158 1176.09 105.692 1173.69 107.506C1171.34 109.32 1168.03 110.226 1163.76 110.226H1149.44C1145.39 110.226 1142.16 109.293 1139.76 107.426C1137.41 105.559 1136.24 103.025 1136.24 99.8239C1136.24 97.8501 1136.72 95.6629 1137.68 93.2623L1139.2 89.7414L1148.64 66.4558H1147.44C1141.46 66.4558 1138.48 64.1352 1138.48 59.4941C1138.48 56.1866 1139.65 53.626 1142 51.8122C1144.4 49.9451 1147.73 49.0115 1152 49.0115H1155.68L1159.92 38.529L1160.8 36.3685C1163.31 30.447 1167.26 27.4863 1172.65 27.4863C1174.83 27.4863 1176.7 28.2332 1178.25 29.7269C1179.85 31.1672 1180.65 32.9276 1180.65 35.0082C1180.65 37.0353 1179.95 39.5959 1178.57 42.69L1175.61 49.0115Z"/>
</mask>
<path d="M1175.61 49.0115H1178.09C1184.86 49.0115 1188.25 51.3855 1188.25 56.1333C1188.25 59.3874 1187.05 61.9213 1184.65 63.7351C1182.25 65.5489 1178.94 66.4558 1174.73 66.4558H1168.88L1158.16 92.7822H1167.12C1173.9 92.7822 1177.29 95.1561 1177.29 99.9039C1177.29 103.158 1176.09 105.692 1173.69 107.506C1171.34 109.32 1168.03 110.226 1163.76 110.226H1149.44C1145.39 110.226 1142.16 109.293 1139.76 107.426C1137.41 105.559 1136.24 103.025 1136.24 99.8239C1136.24 97.8501 1136.72 95.6629 1137.68 93.2623L1139.2 89.7414L1148.64 66.4558H1147.44C1141.46 66.4558 1138.48 64.1352 1138.48 59.4941C1138.48 56.1866 1139.65 53.626 1142 51.8122C1144.4 49.9451 1147.73 49.0115 1152 49.0115H1155.68L1159.92 38.529L1160.8 36.3685C1163.31 30.447 1167.26 27.4863 1172.65 27.4863C1174.83 27.4863 1176.7 28.2332 1178.25 29.7269C1179.85 31.1672 1180.65 32.9276 1180.65 35.0082C1180.65 37.0353 1179.95 39.5959 1178.57 42.69L1175.61 49.0115Z" stroke="#2E0818" stroke-width="2" mask="url(#path-4-outside-4_452_6658)"/>
<mask id="path-5-outside-5_452_6658" maskUnits="userSpaceOnUse" x="1060.79" y="46.8906" width="62" height="65" fill="black">
<rect fill="white" x="1060.79" y="46.8906" width="62" height="65"/>
<path d="M1107.56 110.226H1084.35C1077.68 110.226 1072.24 107.878 1068.03 103.184C1063.87 98.4896 1061.79 92.4081 1061.79 84.9396C1061.79 74.9639 1065.23 66.2951 1072.11 58.9333C1078.99 51.5715 1087.07 47.8906 1096.36 47.8906C1102.65 47.8906 1107.77 49.6511 1111.72 53.1719C1115.67 56.6928 1117.64 61.2805 1117.64 66.9352C1117.64 70.8829 1116.65 74.137 1114.68 76.6976C1112.71 79.2049 1110.17 80.4585 1107.08 80.4585C1102.17 80.4585 1099.72 78.1646 1099.72 73.5769C1099.72 72.8833 1099.72 72.2965 1099.72 71.8164C1099.77 71.2296 1099.8 70.6695 1099.8 70.136C1099.8 66.4018 1097.96 64.5347 1094.27 64.5347C1090.81 64.5347 1087.63 66.3751 1084.75 70.056C1081.93 73.7369 1080.51 77.8446 1080.51 82.379C1080.51 86.1666 1081.66 88.8606 1083.95 90.4609C1086.3 92.008 1090.25 92.7815 1095.8 92.7815H1110.92C1117.69 92.7815 1121.08 95.1554 1121.08 99.9032C1121.08 103.104 1119.85 105.638 1117.4 107.505C1115 109.319 1111.72 110.226 1107.56 110.226Z"/>
</mask>
<path d="M1107.56 110.226H1084.35C1077.68 110.226 1072.24 107.878 1068.03 103.184C1063.87 98.4896 1061.79 92.4081 1061.79 84.9396C1061.79 74.9639 1065.23 66.2951 1072.11 58.9333C1078.99 51.5715 1087.07 47.8906 1096.36 47.8906C1102.65 47.8906 1107.77 49.6511 1111.72 53.1719C1115.67 56.6928 1117.64 61.2805 1117.64 66.9352C1117.64 70.8829 1116.65 74.137 1114.68 76.6976C1112.71 79.2049 1110.17 80.4585 1107.08 80.4585C1102.17 80.4585 1099.72 78.1646 1099.72 73.5769C1099.72 72.8833 1099.72 72.2965 1099.72 71.8164C1099.77 71.2296 1099.8 70.6695 1099.8 70.136C1099.8 66.4018 1097.96 64.5347 1094.27 64.5347C1090.81 64.5347 1087.63 66.3751 1084.75 70.056C1081.93 73.7369 1080.51 77.8446 1080.51 82.379C1080.51 86.1666 1081.66 88.8606 1083.95 90.4609C1086.3 92.008 1090.25 92.7815 1095.8 92.7815H1110.92C1117.69 92.7815 1121.08 95.1554 1121.08 99.9032C1121.08 103.104 1119.85 105.638 1117.4 107.505C1115 109.319 1111.72 110.226 1107.56 110.226Z" stroke="#2E0818" stroke-width="2" mask="url(#path-5-outside-5_452_6658)"/>
<mask id="path-6-outside-6_452_6658" maskUnits="userSpaceOnUse" x="984.182" y="46.8906" width="65" height="65" fill="black">
<rect fill="white" x="984.182" y="46.8906" width="65" height="65"/>
<path d="M1004.31 86.7801C1004.31 90.781 1007.32 92.7815 1013.35 92.7815H1037.11C1043.84 92.7815 1047.2 95.1554 1047.2 99.9032C1047.2 103.157 1046 105.691 1043.6 107.505C1041.25 109.319 1037.94 110.226 1033.67 110.226H1011.03C1002.6 110.226 996.171 108.145 991.743 103.984C987.369 99.8232 985.182 93.7417 985.182 85.7398C985.182 75.444 988.649 66.5618 995.584 59.0933C1002.57 51.6249 1010.87 47.8906 1020.47 47.8906C1027.46 47.8906 1033.06 49.7311 1037.27 53.412C1041.54 57.0395 1043.68 61.8407 1043.68 67.8155C1043.68 75.0172 1040.74 80.3518 1034.87 83.8193C1031.62 85.7931 1026.77 86.7801 1020.31 86.7801H1004.31ZM1008.15 72.2165H1016.95C1022.66 72.2165 1025.43 70.9629 1025.27 68.4556C1025.11 65.6283 1023.27 64.2146 1019.75 64.2146C1014.84 64.2146 1010.97 66.8819 1008.15 72.2165Z"/>
</mask>
<path d="M1004.31 86.7801C1004.31 90.781 1007.32 92.7815 1013.35 92.7815H1037.11C1043.84 92.7815 1047.2 95.1554 1047.2 99.9032C1047.2 103.157 1046 105.691 1043.6 107.505C1041.25 109.319 1037.94 110.226 1033.67 110.226H1011.03C1002.6 110.226 996.171 108.145 991.743 103.984C987.369 99.8232 985.182 93.7417 985.182 85.7398C985.182 75.444 988.649 66.5618 995.584 59.0933C1002.57 51.6249 1010.87 47.8906 1020.47 47.8906C1027.46 47.8906 1033.06 49.7311 1037.27 53.412C1041.54 57.0395 1043.68 61.8407 1043.68 67.8155C1043.68 75.0172 1040.74 80.3518 1034.87 83.8193C1031.62 85.7931 1026.77 86.7801 1020.31 86.7801H1004.31ZM1008.15 72.2165H1016.95C1022.66 72.2165 1025.43 70.9629 1025.27 68.4556C1025.11 65.6283 1023.27 64.2146 1019.75 64.2146C1014.84 64.2146 1010.97 66.8819 1008.15 72.2165Z" stroke="#2E0818" stroke-width="2" mask="url(#path-6-outside-6_452_6658)"/>
<mask id="path-7-outside-7_452_6658" maskUnits="userSpaceOnUse" x="897.971" y="0" width="107" height="167" fill="black">
<rect fill="white" x="897.971" width="107" height="167"/>
<path d="M962.746 49.0116H973.789C980.564 49.0116 983.951 51.3855 983.951 56.1334C983.951 59.3875 982.751 61.9214 980.35 63.7352C978.003 65.549 974.696 66.4559 970.428 66.4559H955.704L919.776 155.037C916.788 162.346 912.627 166 907.293 166C904.945 166 902.972 165.28 901.371 163.839C899.771 162.399 898.971 160.612 898.971 158.478C898.971 156.931 899.664 154.397 901.051 150.876L935.38 66.4559H929.938C923.163 66.4559 919.776 64.1353 919.776 59.4942C919.776 56.1867 920.949 53.6261 923.297 51.8123C925.697 49.9452 929.031 49.0116 933.299 49.0116H942.421L952.584 23.9656C955.998 15.6436 960.079 9.74879 964.827 6.28128C969.628 2.76043 976.029 1 984.031 1H993.154C999.982 1 1003.4 3.34724 1003.4 8.04171C1003.4 11.4025 1002.2 14.0165 999.795 15.8836C997.395 17.7507 994.06 18.6843 989.793 18.6843H987.392C982.911 18.6843 979.364 19.5912 976.75 21.4049C974.189 23.2187 972.028 26.2861 970.268 30.6072L962.746 49.0116Z"/>
</mask>
<path d="M962.746 49.0116H973.789C980.564 49.0116 983.951 51.3855 983.951 56.1334C983.951 59.3875 982.751 61.9214 980.35 63.7352C978.003 65.549 974.696 66.4559 970.428 66.4559H955.704L919.776 155.037C916.788 162.346 912.627 166 907.293 166C904.945 166 902.972 165.28 901.371 163.839C899.771 162.399 898.971 160.612 898.971 158.478C898.971 156.931 899.664 154.397 901.051 150.876L935.38 66.4559H929.938C923.163 66.4559 919.776 64.1353 919.776 59.4942C919.776 56.1867 920.949 53.6261 923.297 51.8123C925.697 49.9452 929.031 49.0116 933.299 49.0116H942.421L952.584 23.9656C955.998 15.6436 960.079 9.74879 964.827 6.28128C969.628 2.76043 976.029 1 984.031 1H993.154C999.982 1 1003.4 3.34724 1003.4 8.04171C1003.4 11.4025 1002.2 14.0165 999.795 15.8836C997.395 17.7507 994.06 18.6843 989.793 18.6843H987.392C982.911 18.6843 979.364 19.5912 976.75 21.4049C974.189 23.2187 972.028 26.2861 970.268 30.6072L962.746 49.0116Z" stroke="#2E0818" stroke-width="2" mask="url(#path-7-outside-7_452_6658)"/>
<mask id="path-8-outside-8_452_6658" maskUnits="userSpaceOnUse" x="838.488" y="37.0488" width="67" height="75" fill="black">
<rect fill="white" x="838.488" y="37.0488" width="67" height="75"/>
<path d="M860.213 66.5357L857.493 73.2574C855.039 79.2321 851.838 82.2195 847.89 82.2195C845.49 82.2195 843.489 81.4994 841.889 80.059C840.288 78.6187 839.488 76.8316 839.488 74.6977C839.488 73.4707 840.075 71.3902 841.249 68.4562L850.291 46.1308C852.478 40.7428 855.572 38.0488 859.573 38.0488C863.521 38.0488 865.948 39.9159 866.855 43.6502L867.495 46.1308C867.815 47.4111 868.295 48.2113 868.935 48.5314C869.576 48.8514 871.149 49.0115 873.657 49.0115H892.381C899.369 49.0115 902.864 51.4654 902.864 56.3733C902.864 63.1482 898.436 66.5357 889.58 66.5357L888.7 67.3359C880.218 75.4446 875.977 81.7127 875.977 86.1405C875.977 90.5682 878.431 92.7821 883.339 92.7821H893.421C900.196 92.7821 903.584 95.1293 903.584 99.8238C903.584 103.131 902.384 105.692 899.983 107.506C897.636 109.319 894.328 110.226 890.061 110.226H874.377C869.042 110.226 864.668 108.386 861.254 104.705C857.893 101.024 856.212 96.2496 856.212 90.3815C856.212 86.6473 857.119 83.0197 858.933 79.4989C860.747 75.978 863.948 71.657 868.535 66.5357H860.213Z"/>
</mask>
<path d="M860.213 66.5357L857.493 73.2574C855.039 79.2321 851.838 82.2195 847.89 82.2195C845.49 82.2195 843.489 81.4994 841.889 80.059C840.288 78.6187 839.488 76.8316 839.488 74.6977C839.488 73.4707 840.075 71.3902 841.249 68.4562L850.291 46.1308C852.478 40.7428 855.572 38.0488 859.573 38.0488C863.521 38.0488 865.948 39.9159 866.855 43.6502L867.495 46.1308C867.815 47.4111 868.295 48.2113 868.935 48.5314C869.576 48.8514 871.149 49.0115 873.657 49.0115H892.381C899.369 49.0115 902.864 51.4654 902.864 56.3733C902.864 63.1482 898.436 66.5357 889.58 66.5357L888.7 67.3359C880.218 75.4446 875.977 81.7127 875.977 86.1405C875.977 90.5682 878.431 92.7821 883.339 92.7821H893.421C900.196 92.7821 903.584 95.1293 903.584 99.8238C903.584 103.131 902.384 105.692 899.983 107.506C897.636 109.319 894.328 110.226 890.061 110.226H874.377C869.042 110.226 864.668 108.386 861.254 104.705C857.893 101.024 856.212 96.2496 856.212 90.3815C856.212 86.6473 857.119 83.0197 858.933 79.4989C860.747 75.978 863.948 71.657 868.535 66.5357H860.213Z" stroke="#2E0818" stroke-width="2" mask="url(#path-8-outside-8_452_6658)"/>
<mask id="path-9-outside-9_452_6658" maskUnits="userSpaceOnUse" x="762.68" y="46.8906" width="65" height="65" fill="black">
<rect fill="white" x="762.68" y="46.8906" width="65" height="65"/>
<path d="M782.804 86.7801C782.804 90.781 785.818 92.7815 791.847 92.7815H815.612C822.334 92.7815 825.695 95.1554 825.695 99.9032C825.695 103.157 824.494 105.691 822.094 107.505C819.747 109.319 816.439 110.226 812.171 110.226H789.526C781.097 110.226 774.669 108.145 770.241 103.984C765.867 99.8232 763.68 93.7417 763.68 85.7398C763.68 75.444 767.147 66.5618 774.082 59.0933C781.071 51.6249 789.366 47.8906 798.968 47.8906C805.957 47.8906 811.558 49.7311 815.772 53.412C820.04 57.0395 822.174 61.8407 822.174 67.8155C822.174 75.0172 819.24 80.3518 813.372 83.8193C810.118 85.7931 805.263 86.7801 798.808 86.7801H782.804ZM786.645 72.2165H795.447C801.155 72.2165 803.929 70.9629 803.769 68.4556C803.609 65.6283 801.769 64.2146 798.248 64.2146C793.34 64.2146 789.473 66.8819 786.645 72.2165Z"/>
</mask>
<path d="M782.804 86.7801C782.804 90.781 785.818 92.7815 791.847 92.7815H815.612C822.334 92.7815 825.695 95.1554 825.695 99.9032C825.695 103.157 824.494 105.691 822.094 107.505C819.747 109.319 816.439 110.226 812.171 110.226H789.526C781.097 110.226 774.669 108.145 770.241 103.984C765.867 99.8232 763.68 93.7417 763.68 85.7398C763.68 75.444 767.147 66.5618 774.082 59.0933C781.071 51.6249 789.366 47.8906 798.968 47.8906C805.957 47.8906 811.558 49.7311 815.772 53.412C820.04 57.0395 822.174 61.8407 822.174 67.8155C822.174 75.0172 819.24 80.3518 813.372 83.8193C810.118 85.7931 805.263 86.7801 798.808 86.7801H782.804ZM786.645 72.2165H795.447C801.155 72.2165 803.929 70.9629 803.769 68.4556C803.609 65.6283 801.769 64.2146 798.248 64.2146C793.34 64.2146 789.473 66.8819 786.645 72.2165Z" stroke="#2E0818" stroke-width="2" mask="url(#path-9-outside-9_452_6658)"/>
<mask id="path-10-outside-10_452_6658" maskUnits="userSpaceOnUse" x="609.014" y="0" width="158" height="149" fill="black">
<rect fill="white" x="609.014" width="158" height="149"/>
<path d="M717.64 55.5732L704.357 88.3812C697.742 104.598 692.62 115.774 688.993 121.909C685.419 128.044 680.884 133.272 675.39 137.593C667.388 143.888 658.105 147.035 647.543 147.035C636.393 147.035 627.351 143.515 620.416 136.473C613.481 129.431 610.014 120.282 610.014 109.026C610.014 93.9825 615.508 80.8327 626.498 69.5766C632.419 63.4951 639.834 58.614 648.743 54.9331C657.652 51.1988 666.481 49.3317 675.229 49.3317C679.444 49.3317 682.831 50.2919 685.392 52.2124C687.953 54.0795 689.233 56.5601 689.233 59.6542C689.233 62.9083 687.846 65.5223 685.072 67.4961C683.471 68.6697 680.404 69.4699 675.87 69.8967C665.307 70.8569 656.745 73.2842 650.183 77.1785C644.742 80.4326 640.448 84.7003 637.3 89.9816C634.153 95.2095 632.579 100.731 632.579 106.546C632.579 112.467 634.1 117.161 637.14 120.629C640.234 124.15 644.369 125.91 649.543 125.91C656.051 125.91 661.68 123.163 666.427 117.668C671.175 112.174 676.403 102.411 682.111 88.3812L709.878 20.1246H701.156C693.794 20.1246 690.113 17.564 690.113 12.4428C690.113 8.81523 691.393 6.01455 693.954 4.04074C696.568 2.01358 700.222 1 704.917 1H735.404C745.647 1 753.195 2.94714 758.05 6.84141C762.957 10.6823 765.411 16.6305 765.411 24.6857C765.411 34.5014 761.624 42.5301 754.049 48.7716C748.554 53.306 740.072 55.5732 728.602 55.5732H717.64ZM725.402 36.4486H731.883C740.419 36.4486 744.686 32.9811 744.686 26.0461C744.686 22.0984 742.259 20.1246 737.405 20.1246H732.043L725.402 36.4486Z"/>
</mask>
<path d="M717.64 55.5732L704.357 88.3812C697.742 104.598 692.62 115.774 688.993 121.909C685.419 128.044 680.884 133.272 675.39 137.593C667.388 143.888 658.105 147.035 647.543 147.035C636.393 147.035 627.351 143.515 620.416 136.473C613.481 129.431 610.014 120.282 610.014 109.026C610.014 93.9825 615.508 80.8327 626.498 69.5766C632.419 63.4951 639.834 58.614 648.743 54.9331C657.652 51.1988 666.481 49.3317 675.229 49.3317C679.444 49.3317 682.831 50.2919 685.392 52.2124C687.953 54.0795 689.233 56.5601 689.233 59.6542C689.233 62.9083 687.846 65.5223 685.072 67.4961C683.471 68.6697 680.404 69.4699 675.87 69.8967C665.307 70.8569 656.745 73.2842 650.183 77.1785C644.742 80.4326 640.448 84.7003 637.3 89.9816C634.153 95.2095 632.579 100.731 632.579 106.546C632.579 112.467 634.1 117.161 637.14 120.629C640.234 124.15 644.369 125.91 649.543 125.91C656.051 125.91 661.68 123.163 666.427 117.668C671.175 112.174 676.403 102.411 682.111 88.3812L709.878 20.1246H701.156C693.794 20.1246 690.113 17.564 690.113 12.4428C690.113 8.81523 691.393 6.01455 693.954 4.04074C696.568 2.01358 700.222 1 704.917 1H735.404C745.647 1 753.195 2.94714 758.05 6.84141C762.957 10.6823 765.411 16.6305 765.411 24.6857C765.411 34.5014 761.624 42.5301 754.049 48.7716C748.554 53.306 740.072 55.5732 728.602 55.5732H717.64ZM725.402 36.4486H731.883C740.419 36.4486 744.686 32.9811 744.686 26.0461C744.686 22.0984 742.259 20.1246 737.405 20.1246H732.043L725.402 36.4486Z" stroke="#2E0818" stroke-width="2" mask="url(#path-10-outside-10_452_6658)"/>
<mask id="path-11-outside-11_452_6658" maskUnits="userSpaceOnUse" x="486.127" y="37.0488" width="67" height="75" fill="black">
<rect fill="white" x="486.127" y="37.0488" width="67" height="75"/>
<path d="M507.852 66.5357L505.131 73.2574C502.677 79.2321 499.477 82.2195 495.529 82.2195C493.128 82.2195 491.128 81.4994 489.528 80.059C487.927 78.6187 487.127 76.8316 487.127 74.6977C487.127 73.4707 487.714 71.3902 488.887 68.4562L497.93 46.1308C500.117 40.7428 503.211 38.0488 507.212 38.0488C511.159 38.0488 513.587 39.9159 514.494 43.6502L515.134 46.1308C515.454 47.4111 515.934 48.2113 516.574 48.5314C517.214 48.8514 518.788 49.0115 521.295 49.0115H540.02C547.008 49.0115 550.502 51.4654 550.502 56.3733C550.502 63.1482 546.075 66.5357 537.219 66.5357L536.339 67.3359C527.857 75.4446 523.616 81.7127 523.616 86.1405C523.616 90.5682 526.07 92.7821 530.978 92.7821H541.06C547.835 92.7821 551.222 95.1293 551.222 99.8238C551.222 103.131 550.022 105.692 547.622 107.506C545.274 109.319 541.967 110.226 537.699 110.226H522.015C516.681 110.226 512.306 108.386 508.892 104.705C505.531 101.024 503.851 96.2496 503.851 90.3815C503.851 86.6473 504.758 83.0197 506.572 79.4989C508.385 75.978 511.586 71.657 516.174 66.5357H507.852Z"/>
</mask>
<path d="M507.852 66.5357L505.131 73.2574C502.677 79.2321 499.477 82.2195 495.529 82.2195C493.128 82.2195 491.128 81.4994 489.528 80.059C487.927 78.6187 487.127 76.8316 487.127 74.6977C487.127 73.4707 487.714 71.3902 488.887 68.4562L497.93 46.1308C500.117 40.7428 503.211 38.0488 507.212 38.0488C511.159 38.0488 513.587 39.9159 514.494 43.6502L515.134 46.1308C515.454 47.4111 515.934 48.2113 516.574 48.5314C517.214 48.8514 518.788 49.0115 521.295 49.0115H540.02C547.008 49.0115 550.502 51.4654 550.502 56.3733C550.502 63.1482 546.075 66.5357 537.219 66.5357L536.339 67.3359C527.857 75.4446 523.616 81.7127 523.616 86.1405C523.616 90.5682 526.07 92.7821 530.978 92.7821H541.06C547.835 92.7821 551.222 95.1293 551.222 99.8238C551.222 103.131 550.022 105.692 547.622 107.506C545.274 109.319 541.967 110.226 537.699 110.226H522.015C516.681 110.226 512.306 108.386 508.892 104.705C505.531 101.024 503.851 96.2496 503.851 90.3815C503.851 86.6473 504.758 83.0197 506.572 79.4989C508.385 75.978 511.586 71.657 516.174 66.5357H507.852Z" stroke="#2E0818" stroke-width="2" mask="url(#path-11-outside-11_452_6658)"/>
<mask id="path-12-outside-12_452_6658" maskUnits="userSpaceOnUse" x="407.68" y="46.8906" width="66" height="65" fill="black">
<rect fill="white" x="407.68" y="46.8906" width="66" height="65"/>
<path d="M445.569 47.8906C453.304 47.8906 459.652 50.3446 464.613 55.2524C469.628 60.1603 472.135 66.4018 472.135 73.9769C472.135 79.685 470.828 85.3664 468.214 91.0211C465.6 96.6224 462.213 101.104 458.052 104.464C455.278 106.652 452.397 108.172 449.41 109.025C446.476 109.826 442.341 110.226 437.007 110.226C428.311 110.226 422.443 109.185 419.402 107.105C412.254 102.197 408.68 94.942 408.68 85.3397C408.68 75.2039 412.334 66.4285 419.642 59.0133C426.951 51.5982 435.593 47.8906 445.569 47.8906ZM443.648 64.9348C439.701 64.9348 436.1 66.8819 432.846 70.7762C429.591 74.6704 427.964 78.9648 427.964 83.6593C427.964 89.8475 431.432 92.9415 438.367 92.9415C442.421 92.9415 445.542 91.6879 447.729 89.1806C451.357 85.073 453.17 80.3785 453.17 75.0972C453.17 72.0565 452.29 69.6026 450.53 67.7354C448.769 65.8683 446.476 64.9348 443.648 64.9348Z"/>
</mask>
<path d="M445.569 47.8906C453.304 47.8906 459.652 50.3446 464.613 55.2524C469.628 60.1603 472.135 66.4018 472.135 73.9769C472.135 79.685 470.828 85.3664 468.214 91.0211C465.6 96.6224 462.213 101.104 458.052 104.464C455.278 106.652 452.397 108.172 449.41 109.025C446.476 109.826 442.341 110.226 437.007 110.226C428.311 110.226 422.443 109.185 419.402 107.105C412.254 102.197 408.68 94.942 408.68 85.3397C408.68 75.2039 412.334 66.4285 419.642 59.0133C426.951 51.5982 435.593 47.8906 445.569 47.8906ZM443.648 64.9348C439.701 64.9348 436.1 66.8819 432.846 70.7762C429.591 74.6704 427.964 78.9648 427.964 83.6593C427.964 89.8475 431.432 92.9415 438.367 92.9415C442.421 92.9415 445.542 91.6879 447.729 89.1806C451.357 85.073 453.17 80.3785 453.17 75.0972C453.17 72.0565 452.29 69.6026 450.53 67.7354C448.769 65.8683 446.476 64.9348 443.648 64.9348Z" stroke="#2E0818" stroke-width="2" mask="url(#path-12-outside-12_452_6658)"/>
<mask id="path-13-outside-13_452_6658" maskUnits="userSpaceOnUse" x="321.391" y="0" width="107" height="167" fill="black">
<rect fill="white" x="321.391" width="107" height="167"/>
<path d="M386.166 49.0116H397.209C403.984 49.0116 407.371 51.3855 407.371 56.1334C407.371 59.3875 406.171 61.9214 403.77 63.7352C401.423 65.549 398.116 66.4559 393.848 66.4559H379.124L343.196 155.037C340.208 162.346 336.047 166 330.713 166C328.365 166 326.392 165.28 324.791 163.839C323.191 162.399 322.391 160.612 322.391 158.478C322.391 156.931 323.084 154.397 324.471 150.876L358.799 66.4559H353.358C346.583 66.4559 343.196 64.1353 343.196 59.4942C343.196 56.1867 344.369 53.6261 346.717 51.8123C349.117 49.9452 352.451 49.0116 356.719 49.0116H365.841L376.004 23.9656C379.418 15.6436 383.499 9.74879 388.247 6.28128C393.048 2.76043 399.449 1 407.451 1H416.573C423.402 1 426.816 3.34724 426.816 8.04171C426.816 11.4025 425.616 14.0165 423.215 15.8836C420.814 17.7507 417.48 18.6843 413.213 18.6843H410.812C406.331 18.6843 402.783 19.5912 400.169 21.4049C397.609 23.2187 395.448 26.2861 393.688 30.6072L386.166 49.0116Z"/>
</mask>
<path d="M386.166 49.0116H397.209C403.984 49.0116 407.371 51.3855 407.371 56.1334C407.371 59.3875 406.171 61.9214 403.77 63.7352C401.423 65.549 398.116 66.4559 393.848 66.4559H379.124L343.196 155.037C340.208 162.346 336.047 166 330.713 166C328.365 166 326.392 165.28 324.791 163.839C323.191 162.399 322.391 160.612 322.391 158.478C322.391 156.931 323.084 154.397 324.471 150.876L358.799 66.4559H353.358C346.583 66.4559 343.196 64.1353 343.196 59.4942C343.196 56.1867 344.369 53.6261 346.717 51.8123C349.117 49.9452 352.451 49.0116 356.719 49.0116H365.841L376.004 23.9656C379.418 15.6436 383.499 9.74879 388.247 6.28128C393.048 2.76043 399.449 1 407.451 1H416.573C423.402 1 426.816 3.34724 426.816 8.04171C426.816 11.4025 425.616 14.0165 423.215 15.8836C420.814 17.7507 417.48 18.6843 413.213 18.6843H410.812C406.331 18.6843 402.783 19.5912 400.169 21.4049C397.609 23.2187 395.448 26.2861 393.688 30.6072L386.166 49.0116Z" stroke="#2E0818" stroke-width="2" mask="url(#path-13-outside-13_452_6658)"/>
<mask id="path-14-outside-14_452_6658" maskUnits="userSpaceOnUse" x="232.83" y="0" width="66" height="112" fill="black">
<rect fill="white" x="232.83" width="66" height="112"/>
<path d="M255.995 92.7822H286.803C293.578 92.7822 296.965 95.1562 296.965 99.904C296.965 103.158 295.765 105.692 293.365 107.506C291.017 109.32 287.71 110.226 283.442 110.226H246.633C242.686 110.226 239.565 109.293 237.271 107.426C234.977 105.559 233.83 103.051 233.83 99.904C233.83 98.2502 234.604 95.5029 236.151 91.662L268.478 12.1227L269.359 9.96217C271.813 3.98739 275.734 1 281.122 1C283.362 1 285.256 1.74685 286.803 3.24054C288.403 4.73424 289.203 6.52134 289.203 8.60184C289.203 10.2022 288.803 12.016 288.003 14.0432L287.123 16.2037L255.995 92.7822Z"/>
</mask>
<path d="M255.995 92.7822H286.803C293.578 92.7822 296.965 95.1562 296.965 99.904C296.965 103.158 295.765 105.692 293.365 107.506C291.017 109.32 287.71 110.226 283.442 110.226H246.633C242.686 110.226 239.565 109.293 237.271 107.426C234.977 105.559 233.83 103.051 233.83 99.904C233.83 98.2502 234.604 95.5029 236.151 91.662L268.478 12.1227L269.359 9.96217C271.813 3.98739 275.734 1 281.122 1C283.362 1 285.256 1.74685 286.803 3.24054C288.403 4.73424 289.203 6.52134 289.203 8.60184C289.203 10.2022 288.803 12.016 288.003 14.0432L287.123 16.2037L255.995 92.7822Z" stroke="#2E0818" stroke-width="2" mask="url(#path-14-outside-14_452_6658)"/>
<mask id="path-15-outside-15_452_6658" maskUnits="userSpaceOnUse" x="145.5" y="46.8906" width="76" height="65" fill="black">
<rect fill="white" x="145.5" y="46.8906" width="76" height="65"/>
<path d="M201.073 92.7815H209.875C216.597 92.7815 219.958 95.1287 219.958 99.8232C219.958 103.077 218.758 105.638 216.357 107.505C213.956 109.319 210.649 110.226 206.435 110.226H196.192C191.604 110.226 188.484 108.439 186.83 104.864C182.829 108.439 178.961 110.226 175.227 110.226H166.105C160.237 110.226 155.489 108.145 151.861 103.984C148.287 99.7699 146.5 94.2752 146.5 87.5002C146.5 77.2577 150.021 68.1089 157.063 60.0536C164.158 51.9449 172.16 47.8906 181.068 47.8906C187.897 47.8906 192.885 50.2645 196.032 55.0124C198.699 51.0114 202.194 49.0109 206.515 49.0109C208.862 49.0109 210.809 49.7577 212.356 51.2514C213.956 52.7451 214.757 54.5856 214.757 56.7728C214.757 58.2665 214.33 60.0536 213.476 62.1341L212.596 64.2946L201.073 92.7815ZM172.026 93.1816H174.027C178.401 93.1816 181.308 91.3945 182.749 87.8203L188.35 73.9769C189.097 72.1632 189.47 70.6428 189.47 69.4158C189.47 67.9755 188.75 66.7219 187.31 65.6549C185.923 64.588 184.242 64.0545 182.269 64.0545C178.374 64.0545 174.587 66.3218 170.906 70.8562C167.225 75.3906 165.385 80.0851 165.385 84.9396C165.385 90.4343 167.598 93.1816 172.026 93.1816Z"/>
</mask>
<path d="M201.073 92.7815H209.875C216.597 92.7815 219.958 95.1287 219.958 99.8232C219.958 103.077 218.758 105.638 216.357 107.505C213.956 109.319 210.649 110.226 206.435 110.226H196.192C191.604 110.226 188.484 108.439 186.83 104.864C182.829 108.439 178.961 110.226 175.227 110.226H166.105C160.237 110.226 155.489 108.145 151.861 103.984C148.287 99.7699 146.5 94.2752 146.5 87.5002C146.5 77.2577 150.021 68.1089 157.063 60.0536C164.158 51.9449 172.16 47.8906 181.068 47.8906C187.897 47.8906 192.885 50.2645 196.032 55.0124C198.699 51.0114 202.194 49.0109 206.515 49.0109C208.862 49.0109 210.809 49.7577 212.356 51.2514C213.956 52.7451 214.757 54.5856 214.757 56.7728C214.757 58.2665 214.33 60.0536 213.476 62.1341L212.596 64.2946L201.073 92.7815ZM172.026 93.1816H174.027C178.401 93.1816 181.308 91.3945 182.749 87.8203L188.35 73.9769C189.097 72.1632 189.47 70.6428 189.47 69.4158C189.47 67.9755 188.75 66.7219 187.31 65.6549C185.923 64.588 184.242 64.0545 182.269 64.0545C178.374 64.0545 174.587 66.3218 170.906 70.8562C167.225 75.3906 165.385 80.0851 165.385 84.9396C165.385 90.4343 167.598 93.1816 172.026 93.1816Z" stroke="#2E0818" stroke-width="2" mask="url(#path-15-outside-15_452_6658)"/>
<mask id="path-16-outside-16_452_6658" maskUnits="userSpaceOnUse" x="68.8945" y="46.8906" width="65" height="65" fill="black">
<rect fill="white" x="68.8945" y="46.8906" width="65" height="65"/>
<path d="M89.0192 86.7801C89.0192 90.781 92.0332 92.7815 98.0614 92.7815H121.827C128.549 92.7815 131.91 95.1554 131.91 99.9032C131.91 103.157 130.709 105.691 128.309 107.505C125.961 109.319 122.654 110.226 118.386 110.226H95.7408C87.3121 110.226 80.8839 108.145 76.4561 103.984C72.0817 99.8232 69.8945 93.7417 69.8945 85.7398C69.8945 75.444 73.362 66.5618 80.2971 59.0933C87.2854 51.6249 95.5808 47.8906 105.183 47.8906C112.171 47.8906 117.773 49.7311 121.987 53.412C126.255 57.0395 128.389 61.8407 128.389 67.8155C128.389 75.0172 125.455 80.3518 119.587 83.8193C116.332 85.7931 111.478 86.7801 105.023 86.7801H89.0192ZM92.8601 72.2165H101.662C107.37 72.2165 110.144 70.9629 109.984 68.4556C109.824 65.6283 107.984 64.2146 104.463 64.2146C99.5551 64.2146 95.6875 66.8819 92.8601 72.2165Z"/>
</mask>
<path d="M89.0192 86.7801C89.0192 90.781 92.0332 92.7815 98.0614 92.7815H121.827C128.549 92.7815 131.91 95.1554 131.91 99.9032C131.91 103.157 130.709 105.691 128.309 107.505C125.961 109.319 122.654 110.226 118.386 110.226H95.7408C87.3121 110.226 80.8839 108.145 76.4561 103.984C72.0817 99.8232 69.8945 93.7417 69.8945 85.7398C69.8945 75.444 73.362 66.5618 80.2971 59.0933C87.2854 51.6249 95.5808 47.8906 105.183 47.8906C112.171 47.8906 117.773 49.7311 121.987 53.412C126.255 57.0395 128.389 61.8407 128.389 67.8155C128.389 75.0172 125.455 80.3518 119.587 83.8193C116.332 85.7931 111.478 86.7801 105.023 86.7801H89.0192ZM92.8601 72.2165H101.662C107.37 72.2165 110.144 70.9629 109.984 68.4556C109.824 65.6283 107.984 64.2146 104.463 64.2146C99.5551 64.2146 95.6875 66.8819 92.8601 72.2165Z" stroke="#2E0818" stroke-width="2" mask="url(#path-16-outside-16_452_6658)"/>
<mask id="path-17-outside-17_452_6658" maskUnits="userSpaceOnUse" x="0" y="1.56445" width="78" height="110" fill="black">
<rect fill="white" y="1.56445" width="78" height="110"/>
<path d="M32.3676 92.7829H58.7946C65.5162 92.7829 68.877 95.1568 68.877 99.9046C68.877 103.159 67.6767 105.693 65.2761 107.506C62.9289 109.32 59.6214 110.227 55.3537 110.227H11.8026C8.49515 110.227 5.85451 109.4 3.8807 107.747C1.96023 106.093 1 103.852 1 101.025C1 98.3042 2.7871 95.2101 6.3613 91.7426L46.1058 20.0887L20.7511 20.4088H18.7506C12.9358 20.4088 10.0285 18.0082 10.0285 13.207C10.0285 10.2196 11.1754 7.71237 13.4693 5.68521C15.7632 3.60471 18.5639 2.56445 21.8713 2.56445H40.3444H65.2304C72.6456 2.56445 76.3531 5.71188 76.3531 12.0067C76.3531 15.2609 74.6727 18.5417 71.3119 21.8491L32.3676 92.7829Z"/>
</mask>
<path d="M32.3676 92.7829H58.7946C65.5162 92.7829 68.877 95.1568 68.877 99.9046C68.877 103.159 67.6767 105.693 65.2761 107.506C62.9289 109.32 59.6214 110.227 55.3537 110.227H11.8026C8.49515 110.227 5.85451 109.4 3.8807 107.747C1.96023 106.093 1 103.852 1 101.025C1 98.3042 2.7871 95.2101 6.3613 91.7426L46.1058 20.0887L20.7511 20.4088H18.7506C12.9358 20.4088 10.0285 18.0082 10.0285 13.207C10.0285 10.2196 11.1754 7.71237 13.4693 5.68521C15.7632 3.60471 18.5639 2.56445 21.8713 2.56445H40.3444H65.2304C72.6456 2.56445 76.3531 5.71188 76.3531 12.0067C76.3531 15.2609 74.6727 18.5417 71.3119 21.8491L32.3676 92.7829Z" stroke="#2E0818" stroke-width="2" mask="url(#path-17-outside-17_452_6658)"/>
</svg>
