<svg width="1512" height="307" viewBox="0 0 1512 307" fill="none" xmlns="http://www.w3.org/2000/svg">
<g clip-path="url(#clip0_172_197)">
<path d="M119.397 163.29H166.967C178.961 163.29 184.9 167.529 184.9 175.948C184.9 181.755 182.804 186.226 178.553 189.419C174.303 192.613 168.422 194.239 160.795 194.239H88.5953C82.7146 194.239 78.0566 192.787 74.563 189.826C71.0695 186.923 69.381 182.916 69.381 177.923C69.381 172.929 72.234 167.994 78.0566 160.619L169.878 31.4843L-14.0003 32.065H-17.552C-27.9161 32.065 -33.0981 27.8263 -33.0981 19.2908C-33.0981 14.007 -31.0603 9.53602 -26.9845 5.87797C-22.9087 2.21992 -17.9014 0.419922 -12.0206 0.419922H198.059C211.276 0.419922 217.855 5.9941 217.855 17.2005C217.855 23.0069 214.886 28.8134 208.889 34.6779L119.338 163.406L119.397 163.29Z" fill="#2E0818"/>
<path d="M219.95 152.661C219.95 159.745 225.307 163.287 236.021 163.287H278.35C290.345 163.287 296.284 167.526 296.284 175.945C296.284 181.752 294.188 186.223 289.937 189.416C285.687 192.61 279.806 194.236 272.178 194.236H231.887C216.864 194.236 205.452 190.519 197.65 183.145C189.848 175.771 185.889 164.971 185.889 150.745C185.889 132.455 192.061 116.72 204.463 103.423C216.864 90.1842 231.595 83.5068 248.714 83.5068C261.174 83.5068 271.13 86.7584 278.7 93.2616C286.269 99.7648 290.054 108.3 290.054 118.926C290.054 131.7 284.813 141.165 274.391 147.32C268.568 150.803 259.951 152.603 248.481 152.603H220.009L219.95 152.661ZM226.763 126.823H242.425C252.615 126.823 257.506 124.616 257.215 120.145C256.923 115.152 253.663 112.597 247.374 112.597C238.641 112.597 231.77 117.358 226.705 126.823H226.763Z" fill="#2E0818"/>
<path d="M397.712 163.287H413.374C425.369 163.287 431.308 167.467 431.308 175.771C431.308 181.577 429.154 186.048 424.903 189.358C420.653 192.609 414.714 194.235 407.261 194.235H389.036C380.885 194.235 375.295 191.042 372.384 184.713C365.28 191.042 358.352 194.235 351.714 194.235H335.469C325.047 194.235 316.604 190.519 310.199 183.087C303.795 175.654 300.592 165.9 300.592 153.88C300.592 135.706 306.881 119.448 319.457 105.106C332.034 90.7644 346.241 83.5645 362.136 83.5645C374.305 83.5645 383.156 87.8032 388.803 96.2225C393.578 89.1386 399.75 85.5967 407.494 85.5967C411.686 85.5967 415.179 86.9322 417.974 89.6031C420.769 92.2741 422.166 95.5257 422.166 99.416C422.166 102.087 421.41 105.222 419.896 108.939L418.324 112.771L397.828 163.345L397.712 163.287ZM346.008 163.984H349.56C357.362 163.984 362.544 160.79 365.106 154.461L375.062 129.9C376.401 126.706 377.042 123.977 377.042 121.829C377.042 119.274 375.761 117.068 373.257 115.151C370.754 113.235 367.726 112.306 364.232 112.306C357.304 112.306 350.549 116.313 344.028 124.384C337.507 132.455 334.188 140.758 334.188 149.409C334.188 159.164 338.148 164.042 346.008 164.042V163.984Z" fill="#2E0818"/>
<path d="M474.454 163.288H530.176C542.228 163.288 548.284 167.527 548.284 175.946C548.284 181.753 546.188 186.224 541.937 189.417C537.687 192.611 531.806 194.237 524.178 194.237H457.802C450.756 194.237 445.225 192.553 441.149 189.243C437.074 185.933 435.036 181.462 435.036 175.888C435.036 172.985 436.433 168.05 439.17 161.256L496.696 20.0436L498.268 16.2114C502.635 5.58561 509.622 0.301758 519.229 0.301758C523.189 0.301758 526.624 1.63724 529.419 4.25013C532.213 6.92109 533.611 10.0566 533.611 13.7727C533.611 16.6178 532.912 19.8114 531.457 23.4114L529.884 27.2436L474.454 163.172V163.288Z" fill="#2E0818"/>
<path d="M729.714 34.327H676.846C666.307 34.327 661.008 29.798 661.008 20.6819C661.008 14.8755 663.163 10.0561 667.471 6.16581C671.78 2.2755 677.078 0.359375 683.367 0.359375H763.892C791.84 0.359375 813.209 6.97871 828.173 20.2174C843.079 33.456 850.531 52.5592 850.531 77.4688C850.531 115.443 837.838 150.281 812.51 181.868C798.187 199.694 781.942 212.643 763.834 220.772C745.726 228.901 724.066 232.965 698.796 232.965H688.84L687.151 236.913C680.514 251.662 675.274 262.055 671.489 268.036C667.704 274.017 662.755 279.765 656.7 285.339C640.862 299.855 622.638 307.055 602.143 307.055C585.257 307.055 571.342 302.062 560.453 292.075C549.565 282.087 544.15 269.371 544.15 253.926C544.15 244.462 546.479 235.578 551.137 227.275C555.795 218.972 562.084 212.526 570.061 207.881C580.425 201.901 594.399 198.939 612.099 198.939H662.697L729.772 34.1528L729.714 34.327ZM648.781 233.081H611.051C592.419 233.081 583.103 239.642 583.103 252.823C583.103 258.223 585.141 262.752 589.217 266.468C593.292 270.184 598.3 271.984 604.181 271.984C612.914 271.984 621.241 268.559 629.101 261.707C636.961 254.855 643.541 245.275 648.781 233.081ZM702.639 199.114H708.345C737.807 199.114 762.437 186.107 782.291 160.036C791.899 147.552 799.468 133.965 804.999 119.391C810.589 104.817 813.325 91.2881 813.325 78.9204C813.325 65.1011 809.424 54.185 801.622 46.2302C793.82 38.2754 783.223 34.327 769.831 34.327L702.581 199.114H702.639Z" fill="#2E0818"/>
<path d="M886.396 152.661C886.396 159.745 891.752 163.287 902.466 163.287H944.796C956.79 163.287 962.729 167.526 962.729 175.945C962.729 181.752 960.633 186.223 956.382 189.416C952.132 192.61 946.251 194.236 938.624 194.236H898.332C883.31 194.236 871.898 190.519 864.095 183.145C856.293 175.771 852.334 164.971 852.334 150.745C852.334 132.455 858.506 116.72 870.908 103.423C883.31 90.1842 898.041 83.5068 915.159 83.5068C927.619 83.5068 937.576 86.7584 945.145 93.2616C952.714 99.7648 956.499 108.3 956.499 118.926C956.499 131.7 951.259 141.165 940.836 147.32C935.014 150.803 926.396 152.603 914.926 152.603H886.454L886.396 152.661ZM893.208 126.823H908.871C919.06 126.823 923.951 124.616 923.66 120.145C923.369 115.152 920.108 112.597 913.82 112.597C905.086 112.597 898.215 117.358 893.15 126.823H893.208Z" fill="#2E0818"/>
<path d="M1016.01 124.386L1013.33 130.889C1009.14 140.295 1003.2 144.94 995.511 144.94C991.61 144.94 988.116 143.605 985.03 140.876C981.944 138.205 980.43 135.069 980.43 131.586C980.43 128.276 981.828 123.863 984.564 118.347L1003.49 79.9663C1008.15 70.7922 1013.91 66.2051 1020.84 66.2051C1024.57 66.2051 1027.71 67.4244 1030.39 69.8051C1033.07 72.2438 1034.41 75.0889 1034.41 78.3986C1034.41 79.2695 1034.11 81.0695 1033.53 83.9147C1033.12 86.005 1032.95 87.8631 1032.95 89.4889C1032.95 95.4695 1035.16 101.566 1039.65 107.837L1047.74 119.044C1056.01 130.482 1060.14 141.573 1060.14 152.256C1060.14 164.218 1055.66 174.147 1046.75 182.16C1037.84 190.172 1026.72 194.179 1013.44 194.179H983.691C971.638 194.179 965.583 189.998 965.583 181.695C965.583 175.947 967.737 171.418 971.988 168.108C976.238 164.856 982.177 163.231 989.63 163.231H1006.17C1019.38 163.231 1025.96 158.469 1025.96 148.889C1025.96 145.405 1024.74 141.282 1022.24 136.521L1015.95 124.327L1016.01 124.386Z" fill="#2E0818"/>
<path d="M1105.03 163.286H1121.1C1133.1 163.286 1139.03 167.525 1139.03 175.944C1139.03 181.751 1136.94 186.222 1132.69 189.415C1128.44 192.609 1122.56 194.235 1114.93 194.235H1092.28C1083.9 194.235 1077.37 192.551 1072.54 189.125C1067.77 185.699 1065.32 181.054 1065.32 175.19C1065.32 172.054 1066.31 168.106 1068.29 163.228L1091.81 105.57L1093.39 101.564C1097.75 90.8801 1104.8 85.5382 1114.46 85.5382C1118.42 85.5382 1121.92 86.8737 1124.77 89.5447C1127.68 92.2156 1129.14 95.3511 1129.14 99.0672C1129.14 102.087 1127.86 106.732 1125.29 113.003L1104.91 163.286H1105.03ZM1123.84 40.248C1129.37 40.248 1134.03 42.1642 1137.87 45.9964C1141.71 49.8287 1143.63 54.4738 1143.63 59.9899C1143.63 65.506 1141.71 70.1512 1137.87 73.9834C1134.03 77.8157 1129.37 79.7318 1123.84 79.7318C1118.31 79.7318 1113.65 77.8157 1109.81 73.9834C1105.96 70.1512 1104.04 65.506 1104.04 59.9899C1104.04 54.4738 1105.96 49.8287 1109.81 45.9964C1113.65 42.1642 1118.31 40.248 1123.84 40.248Z" fill="#2E0818"/>
<path d="M1225.44 198.244H1242.56C1254.61 198.244 1260.67 202.425 1260.67 210.728C1260.67 216.534 1258.52 221.005 1254.27 224.315C1250.01 227.566 1244.08 229.192 1236.62 229.192H1212.98L1206.99 243.824C1192.43 279.36 1171.24 297.069 1143.29 297.069C1128.67 297.069 1116.5 292.54 1106.72 283.599C1097 274.599 1092.11 263.334 1092.11 249.805C1092.11 240.979 1094.44 232.734 1099.15 225.012C1103.87 217.289 1110.27 211.134 1118.48 206.605C1128.56 201.031 1142.07 198.244 1159.07 198.244H1189.69L1194.12 187.154C1188.12 190.754 1182.47 192.554 1177.17 192.554C1166.99 192.554 1158.78 189.07 1152.43 182.044C1146.14 175.018 1142.94 165.902 1142.94 154.638C1142.94 136.464 1149.34 120.089 1162.15 105.515C1174.96 90.9411 1189.34 83.625 1205.3 83.625C1217 83.625 1225.73 87.3992 1231.5 95.0056C1235.98 87.3992 1242.27 83.625 1250.42 83.625C1254.44 83.625 1257.82 84.9024 1260.61 87.5153C1263.41 90.1282 1264.8 93.2637 1264.8 96.9798C1264.8 99.9411 1263.58 104.412 1261.08 110.451L1225.33 198.244H1225.44ZM1177 229.192H1152.37C1143.81 229.192 1137.17 230.992 1132.52 234.592C1127.8 238.192 1125.47 243.244 1125.47 249.805C1125.47 254.276 1127.1 258.05 1130.3 261.186C1133.51 264.321 1137.52 265.889 1142.3 265.889C1149.11 265.889 1155.11 263.218 1160.23 257.818C1165.36 252.418 1170.94 242.895 1177.06 229.25L1177 229.192ZM1206.93 155.625L1218.46 127.522C1219.39 125.141 1219.91 123.225 1219.91 121.715C1219.91 118.87 1218.63 116.489 1216.13 114.631C1213.62 112.715 1210.48 111.786 1206.64 111.786C1199.82 111.786 1193.25 115.677 1187.07 123.515C1180.9 131.354 1177.76 139.599 1177.76 148.309C1177.76 158.238 1182.42 163.231 1191.73 163.231C1199.82 163.231 1204.89 160.734 1206.99 155.683L1206.93 155.625Z" fill="#2E0818"/>
<path d="M1366.64 163.289H1531.98C1544.03 163.289 1550.09 167.527 1550.09 175.947C1550.09 181.753 1547.93 186.224 1543.68 189.418C1539.43 192.611 1533.49 194.237 1526.04 194.237H1348.06C1342.24 194.237 1337.41 192.495 1333.45 188.953C1329.49 185.411 1327.51 181.056 1327.51 175.714C1327.51 172.521 1328.85 167.643 1331.53 161.198L1344.05 130.25C1345.38 127.057 1346.08 124.444 1346.2 122.411C1346.32 120.147 1345.38 118.173 1343.41 116.605C1341.48 114.979 1338.98 114.166 1335.89 114.166C1326.11 114.166 1318.25 121.482 1312.25 136.173L1295.43 177.398C1290.42 189.882 1282.91 196.153 1272.89 196.153C1268.82 196.153 1265.33 194.934 1262.47 192.437C1259.62 189.94 1258.22 186.921 1258.22 183.321C1258.22 180.65 1258.98 177.514 1260.49 173.798L1262.06 169.966L1290.83 99.2437C1294.55 90.0695 1300.84 85.4824 1309.75 85.4824C1317.09 85.4824 1322.27 88.676 1325.41 95.1211C1335.6 87.3405 1345.27 83.4502 1354.47 83.4502C1363.67 83.4502 1370.77 86.005 1376.54 91.1147C1382.3 96.2243 1385.21 102.728 1385.21 110.566C1385.21 114.921 1384.16 119.74 1382.07 124.908L1366.52 163.114L1366.64 163.289Z" fill="#2E0818"/>
</g>
<defs>
<clipPath id="clip0_172_197">
<rect width="1512" height="307" fill="white"/>
</clipPath>
</defs>
</svg>
